<?xml version="1.0" encoding="UTF-8" standalone="no"?>
<!-- Created with Inkscape (http://www.inkscape.org/) -->

<svg
   xmlns:dc="http://purl.org/dc/elements/1.1/"
   xmlns:cc="http://creativecommons.org/ns#"
   xmlns:rdf="http://www.w3.org/1999/02/22-rdf-syntax-ns#"
   xmlns:svg="http://www.w3.org/2000/svg"
   xmlns="http://www.w3.org/2000/svg"
   xmlns:sodipodi="http://sodipodi.sourceforge.net/DTD/sodipodi-0.dtd"
   xmlns:inkscape="http://www.inkscape.org/namespaces/inkscape"
   width="640"
   height="640"
   viewBox="0 0 640.00001 640.00001"
   id="svg2"
   version="1.1"
   inkscape:version="0.91 r13725"
   sodipodi:docname="faulty.svg">
  <defs
     id="defs4" />
  <sodipodi:namedview
     id="base"
     pagecolor="#ffffff"
     bordercolor="#666666"
     borderopacity="1.0"
     inkscape:pageopacity="0.0"
     inkscape:pageshadow="2"
     inkscape:zoom="0.98994949"
     inkscape:cx="267.09296"
     inkscape:cy="300.71647"
     inkscape:document-units="px"
     inkscape:current-layer="layer1"
     showgrid="false"
     units="px"
     inkscape:window-width="1920"
     inkscape:window-height="1058"
     inkscape:window-x="-8"
     inkscape:window-y="-8"
     inkscape:window-maximized="1" />
  <metadata
     id="metadata7">
    <rdf:RDF>
      <cc:Work
         rdf:about="">
        <dc:format>image/svg+xml</dc:format>
        <dc:type
           rdf:resource="http://purl.org/dc/dcmitype/StillImage" />
        <dc:title></dc:title>
      </cc:Work>
    </rdf:RDF>
  </metadata>
  <g
     inkscape:label="Layer 1"
     inkscape:groupmode="layer"
     id="layer1"
     transform="translate(0,-412.36216)">
    <text
       xml:space="preserve"
       style="font-style:normal;font-weight:normal;font-size:40px;line-height:125%;font-family:sans-serif;letter-spacing:0px;word-spacing:0px;fill:#000000;fill-opacity:1;stroke:none;stroke-width:1px;stroke-linecap:butt;stroke-linejoin:miter;stroke-opacity:1"
       x="201.42857"
       y="737.36218"
       id="text4903"
       sodipodi:linespacing="125%"><tspan
         sodipodi:role="line"
         id="tspan4905"
         x="201.42857"
         y="737.36218" /></text>
    <g
       id="g6238">
      <path
         inkscape:connector-curvature="0"
         id="path4815"
         d="M 320,454.16023 A 278.20133,278.2013 0 0 0 41.798113,732.36208 278.20133,278.2013 0 0 0 320,1010.564 278.20133,278.2013 0 0 0 598.20188,732.36208 278.20133,278.2013 0 0 0 320,454.16023 Z m 0,44.87206 A 233.33018,233.33012 0 0 1 553.32982,732.36208 233.33018,233.33012 0 0 1 320,965.69186 233.33018,233.33012 0 0 1 86.670178,732.36208 233.33018,233.33012 0 0 1 320,499.03229 Z"
         style="opacity:1;fill:#999999;fill-opacity:1;stroke:#4b4b4b;stroke-width:5;stroke-linecap:round;stroke-linejoin:miter;stroke-miterlimit:1;stroke-dasharray:none;stroke-opacity:1" />
      <path
         sodipodi:nodetypes="csccscc"
         inkscape:connector-curvature="0"
         id="path4815-5"
         d="m 435.37429,894.55486 c -9e-5,-63.70372 -51.64217,-79.34582 -115.34595,-79.34597 -63.70377,1.5e-4 -115.34585,15.64225 -115.34595,79.34597 l -22.18239,0 c -1.5e-4,-75.9548 61.57347,-101.52842 137.52834,-101.52827 75.95487,-1.5e-4 137.5285,25.57347 137.52832,101.52827 z"
         style="opacity:1;fill:#999999;fill-opacity:1;stroke:#4b4b4b;stroke-width:5;stroke-linecap:round;stroke-linejoin:miter;stroke-miterlimit:1;stroke-dasharray:none;stroke-opacity:1" />
      <g
         id="text4907"
         style="font-style:normal;font-weight:normal;font-size:130.37179565px;line-height:125%;font-family:sans-serif;letter-spacing:0px;word-spacing:0px;fill:#b3b3b3;fill-opacity:1;stroke:#4b4b4b;stroke-width:4.72062063;stroke-linecap:butt;stroke-linejoin:miter;stroke-miterlimit:1;stroke-dasharray:none;stroke-opacity:1"
         transform="matrix(0.83353688,-0.83374041,0.83753782,0.83774233,-57.008246,-109.1786)">
        <path
           inkscape:connector-curvature="0"
           id="path5657"
           d="m -295,577.75977 c -1.72718,10.68575 -0.24289,22.24205 -0.73828,33.26171 -4.61077,1.62036 -12.23297,0.22927 -18,0.69336 -5.31736,1.08748 -12.89473,-2.3282 -16.69336,2 0.23481,4.83309 -2.18861,14.33225 6,12.18555 9.56445,0 19.12891,0 28.69336,0 0.49406,11.25114 -0.98729,23.03776 0.73828,33.95508 3.97261,0.57695 14.09016,3.37184 13.82812,-3.26172 0,-10.23112 0,-20.46224 0,-30.69336 11.25115,-0.49406 23.03777,0.98729 33.95508,-0.73828 0.61011,-3.87819 3.33125,-13.78735 -3.26172,-13.44727 -10.23112,0 -20.46224,0 -30.69336,0 -0.49405,-11.25114 0.98729,-23.03776 -0.73828,-33.95507 -3.7129,-1.22272 -9.36504,-1.22889 -13.08984,0 z"
           style="stroke-width:4.72062063" />
      </g>
      <g
         id="text4907-8"
         style="font-style:normal;font-weight:normal;font-size:130.37179565px;line-height:125%;font-family:sans-serif;letter-spacing:0px;word-spacing:0px;fill:#b3b3b3;fill-opacity:1;stroke:#4b4b4b;stroke-width:4.72062063;stroke-linecap:butt;stroke-linejoin:miter;stroke-miterlimit:1;stroke-dasharray:none;stroke-opacity:1"
         transform="matrix(0.83353688,-0.83374041,0.83753782,0.83774233,142.99145,-109.1786)">
        <path
           inkscape:connector-curvature="0"
           id="path5657-2"
           d="m -295,577.75977 c -1.72718,10.68575 -0.24289,22.24205 -0.73828,33.26171 -4.61077,1.62036 -12.23297,0.22927 -18,0.69336 -5.31736,1.08748 -12.89473,-2.3282 -16.69336,2 0.23481,4.83309 -2.18861,14.33225 6,12.18555 9.56445,0 19.12891,0 28.69336,0 0.49406,11.25114 -0.98729,23.03776 0.73828,33.95508 3.97261,0.57695 14.09016,3.37184 13.82812,-3.26172 0,-10.23112 0,-20.46224 0,-30.69336 11.25115,-0.49406 23.03777,0.98729 33.95508,-0.73828 0.61011,-3.87819 3.33125,-13.78735 -3.26172,-13.44727 -10.23112,0 -20.46224,0 -30.69336,0 -0.49405,-11.25114 0.98729,-23.03776 -0.73828,-33.95507 -3.7129,-1.22272 -9.36504,-1.22889 -13.08984,0 z"
           style="stroke-width:4.72062063" />
      </g>
    </g>
  </g>
</svg>
