<?xml version="1.0" encoding="UTF-8" standalone="no"?>
<!-- Created with Inkscape (http://www.inkscape.org/) -->

<svg
   xmlns:dc="http://purl.org/dc/elements/1.1/"
   xmlns:cc="http://creativecommons.org/ns#"
   xmlns:rdf="http://www.w3.org/1999/02/22-rdf-syntax-ns#"
   xmlns:svg="http://www.w3.org/2000/svg"
   xmlns="http://www.w3.org/2000/svg"
   xmlns:sodipodi="http://sodipodi.sourceforge.net/DTD/sodipodi-0.dtd"
   xmlns:inkscape="http://www.inkscape.org/namespaces/inkscape"
   width="640"
   height="640"
   viewBox="0 0 640.00001 640.00001"
   id="svg2"
   version="1.1"
   inkscape:version="0.91 r13725"
   sodipodi:docname="offline.svg">
  <defs
     id="defs4" />
  <sodipodi:namedview
     id="base"
     pagecolor="#ffffff"
     bordercolor="#666666"
     borderopacity="1.0"
     inkscape:pageopacity="0.0"
     inkscape:pageshadow="2"
     inkscape:zoom="0.35"
     inkscape:cx="545.01604"
     inkscape:cy="15.451656"
     inkscape:document-units="px"
     inkscape:current-layer="layer1"
     showgrid="false"
     units="px"
     inkscape:window-width="1920"
     inkscape:window-height="1058"
     inkscape:window-x="-8"
     inkscape:window-y="-8"
     inkscape:window-maximized="1" />
  <metadata
     id="metadata7">
    <rdf:RDF>
      <cc:Work
         rdf:about="">
        <dc:format>image/svg+xml</dc:format>
        <dc:type
           rdf:resource="http://purl.org/dc/dcmitype/StillImage" />
        <dc:title></dc:title>
      </cc:Work>
    </rdf:RDF>
  </metadata>
  <g
     inkscape:label="Layer 1"
     inkscape:groupmode="layer"
     id="layer1"
     transform="translate(0,-412.36216)">
    <path
       style="opacity:1;fill:#999999;fill-opacity:1;stroke:#4b4b4b;stroke-width:5;stroke-linecap:round;stroke-linejoin:miter;stroke-miterlimit:1;stroke-dasharray:none;stroke-opacity:1"
       d="M 320,454.16023 A 278.20133,278.2013 0 0 0 41.798113,732.36208 278.20133,278.2013 0 0 0 320,1010.564 278.20133,278.2013 0 0 0 598.20188,732.36208 278.20133,278.2013 0 0 0 320,454.16023 Z m 0,44.87206 A 233.33018,233.33012 0 0 1 553.32982,732.36208 233.33018,233.33012 0 0 1 320,965.69186 233.33018,233.33012 0 0 1 86.670178,732.36208 233.33018,233.33012 0 0 1 320,499.03229 Z"
       id="path4815"
       inkscape:connector-curvature="0" />
    <rect
       style="opacity:1;fill:#b3b3b3;fill-opacity:1;stroke:#4b4b4b;stroke-width:5;stroke-linecap:round;stroke-linejoin:round;stroke-miterlimit:1;stroke-dasharray:none;stroke-opacity:1"
       id="rect6246"
       width="277.14285"
       height="23.571428"
       x="177.86974"
       y="808.03735"
       transform="matrix(0.99999397,-0.00347206,0.00347206,0.99999397,0,0)" />
    <rect
       style="opacity:1;fill:#b3b3b3;fill-opacity:1;stroke:#4b4b4b;stroke-width:5.00017691;stroke-linecap:round;stroke-linejoin:round;stroke-miterlimit:1;stroke-dasharray:none;stroke-opacity:1"
       id="rect6246-1"
       width="81.634644"
       height="25.655252"
       x="180.41385"
       y="639.52155"
       transform="matrix(0.9999177,-0.01282949,9.3958163e-4,0.99999956,0,0)" />
    <rect
       style="opacity:1;fill:#b3b3b3;fill-opacity:1;stroke:#4b4b4b;stroke-width:5.00017691;stroke-linecap:round;stroke-linejoin:round;stroke-miterlimit:1;stroke-dasharray:none;stroke-opacity:1"
       id="rect6246-1-0"
       width="81.634644"
       height="25.655252"
       x="380.42792"
       y="642.08759"
       transform="matrix(0.9999177,-0.01282949,9.3958163e-4,0.99999956,0,0)" />
    <g
       style="font-style:normal;font-weight:normal;font-size:40px;line-height:125%;font-family:sans-serif;letter-spacing:0px;word-spacing:0px;fill:#b3b3b3;fill-opacity:1;stroke:#4b4b4b;stroke-width:3.17063857;stroke-linecap:butt;stroke-linejoin:miter;stroke-opacity:1;stroke-miterlimit:4;stroke-dasharray:none"
       id="text6889"
       transform="matrix(1.5769694,0,0,1.5769694,-318.14058,-226.91672)">
      <path
         d="m 542.58789,432.36133 c -0.95162,3.60448 -0.60092,9.19565 4.29883,9.48242 2.66199,0.66988 7.05356,-0.72011 8.57422,0.16602 -4.44908,6.12295 -11.21726,10.85078 -13.55274,18.29296 -1.65395,3.94996 1.92919,8.04654 6.01563,7.14063 8.07291,0 16.14583,0 24.21875,0 2.22328,-4.30764 1.0796,-11.19715 -4.69727,-11.48828 -2.90977,-0.51938 -6.91526,0.15888 -9.10351,0.0664 4.68301,-5.85335 10.69719,-11.0324 13.69531,-18.00781 0.91926,-3.23821 1.047,-9.27284 -3.84766,-7.65234 -8.53385,0 -17.06771,0 -25.60156,0 l 0,1 0,1 z"
         id="path6894"
         inkscape:connector-curvature="0"
         style="stroke:#4b4b4b;stroke-opacity:1;stroke-width:3.17063857;stroke-miterlimit:4;stroke-dasharray:none;fill:#b3b3b3;fill-opacity:1" />
    </g>
  </g>
</svg>
