<?xml version="1.0" encoding="UTF-8" standalone="no"?>
<!-- Created with Inkscape (http://www.inkscape.org/) -->

<svg
   xmlns:dc="http://purl.org/dc/elements/1.1/"
   xmlns:cc="http://creativecommons.org/ns#"
   xmlns:rdf="http://www.w3.org/1999/02/22-rdf-syntax-ns#"
   xmlns:svg="http://www.w3.org/2000/svg"
   xmlns="http://www.w3.org/2000/svg"
   xmlns:sodipodi="http://sodipodi.sourceforge.net/DTD/sodipodi-0.dtd"
   xmlns:inkscape="http://www.inkscape.org/namespaces/inkscape"
   width="640"
   height="640"
   viewBox="0 0 640.00001 640.00001"
   id="svg2"
   version="1.1"
   inkscape:version="0.91 r13725"
   sodipodi:docname="unhealthy.svg">
  <defs
     id="defs4" />
  <sodipodi:namedview
     id="base"
     pagecolor="#ffffff"
     bordercolor="#666666"
     borderopacity="1.0"
     inkscape:pageopacity="0.0"
     inkscape:pageshadow="2"
     inkscape:zoom="0.98994949"
     inkscape:cx="434.48833"
     inkscape:cy="207.83697"
     inkscape:document-units="px"
     inkscape:current-layer="layer1"
     showgrid="false"
     units="px"
     inkscape:window-width="1920"
     inkscape:window-height="1058"
     inkscape:window-x="-8"
     inkscape:window-y="-8"
     inkscape:window-maximized="1" />
  <metadata
     id="metadata7">
    <rdf:RDF>
      <cc:Work
         rdf:about="">
        <dc:format>image/svg+xml</dc:format>
        <dc:type
           rdf:resource="http://purl.org/dc/dcmitype/StillImage" />
        <dc:title></dc:title>
      </cc:Work>
    </rdf:RDF>
  </metadata>
  <g
     inkscape:label="Layer 1"
     inkscape:groupmode="layer"
     id="layer1"
     transform="translate(0,-412.36216)">
    <path
       style="opacity:1;fill:#999999;fill-opacity:1;stroke:#4b4b4b;stroke-width:5;stroke-linecap:round;stroke-linejoin:miter;stroke-miterlimit:1;stroke-dasharray:none;stroke-opacity:1"
       d="M 320,454.16023 A 278.20133,278.2013 0 0 0 41.798113,732.36208 278.20133,278.2013 0 0 0 320,1010.564 278.20133,278.2013 0 0 0 598.20188,732.36208 278.20133,278.2013 0 0 0 320,454.16023 Z m 0,44.87206 A 233.33018,233.33012 0 0 1 553.32982,732.36208 233.33018,233.33012 0 0 1 320,965.69186 233.33018,233.33012 0 0 1 86.670178,732.36208 233.33018,233.33012 0 0 1 320,499.03229 Z"
       id="path4815"
       inkscape:connector-curvature="0" />
    <path
       style="opacity:1;fill:#999999;fill-opacity:1;stroke:#4b4b4b;stroke-width:5;stroke-linecap:round;stroke-linejoin:miter;stroke-miterlimit:1;stroke-dasharray:none;stroke-opacity:1"
       d="M 220.742,609.87778 A 39.742864,39.743044 0 0 0 181,649.61997 a 39.742864,39.743044 0 0 0 39.742,39.74219 39.742864,39.743044 0 0 0 39.742,-39.74219 39.742864,39.743044 0 0 0 -39.742,-39.74219 z m 0,19.89453 a 19.846995,19.847084 0 0 1 19.84756,19.84766 19.846995,19.847084 0 0 1 -19.84756,19.84766 19.846995,19.847084 0 0 1 -19.84756,-19.84766 19.846995,19.847084 0 0 1 19.84756,-19.84766 z"
       id="path4834"
       inkscape:connector-curvature="0" />
    <rect
       style="opacity:1;fill:#b3b3b3;fill-opacity:1;stroke:#4b4b4b;stroke-width:5;stroke-linecap:round;stroke-linejoin:round;stroke-miterlimit:1;stroke-dasharray:none;stroke-opacity:1"
       id="rect6246"
       width="277.14285"
       height="23.571428"
       x="-13.806402"
       y="858.08704"
       transform="matrix(0.97380691,-0.22737658,0.22737658,0.97380691,0,0)" />
    <g
       transform="matrix(0.83353286,-0.83374053,0.83753378,0.83774245,142.99259,-109.17872)"
       style="font-style:normal;font-weight:normal;font-size:130.37179565px;line-height:125%;font-family:sans-serif;letter-spacing:0px;word-spacing:0px;fill:#b3b3b3;fill-opacity:1;stroke:#4b4b4b;stroke-width:4.72062063;stroke-linecap:butt;stroke-linejoin:miter;stroke-miterlimit:1;stroke-dasharray:none;stroke-opacity:1"
       id="text4907-8">
      <path
         style="stroke-width:4.72062063"
         d="m -295,577.75977 c -1.72718,10.68575 -0.24289,22.24205 -0.73828,33.26171 -4.61077,1.62036 -12.23297,0.22927 -18,0.69336 -5.31736,1.08748 -12.89473,-2.3282 -16.69336,2 0.23481,4.83309 -2.18861,14.33225 6,12.18555 9.56445,0 19.12891,0 28.69336,0 0.49406,11.25114 -0.98729,23.03776 0.73828,33.95508 3.97261,0.57695 14.09016,3.37184 13.82812,-3.26172 0,-10.23112 0,-20.46224 0,-30.69336 11.25115,-0.49406 23.03777,0.98729 33.95508,-0.73828 0.61011,-3.87819 3.33125,-13.78735 -3.26172,-13.44727 -10.23112,0 -20.46224,0 -30.69336,0 -0.49405,-11.25114 0.98729,-23.03776 -0.73828,-33.95507 -3.7129,-1.22272 -9.36504,-1.22889 -13.08984,0 z"
         id="path5657-2"
         inkscape:connector-curvature="0" />
    </g>
    <path
       style="opacity:1;fill:#b3b3b3;fill-opacity:1;stroke:#4b4b4b;stroke-width:5;stroke-linecap:round;stroke-linejoin:round;stroke-miterlimit:1;stroke-dasharray:none;stroke-opacity:1"
       d="m 49.571429,617.07645 c 3e-6,17.35752 -9.593896,31.42858 -21.428572,31.42858 -11.834676,0 -21.4285749,-14.07106 -21.4285719,-31.42858 1e-6,-17.35752 21.4285719,-55.42857 21.4285719,-55.42857 0,0 21.428571,38.07105 21.428572,55.42857 z"
       id="path6826"
       inkscape:connector-curvature="0"
       sodipodi:nodetypes="ssscs" />
    <path
       style="opacity:1;fill:#b3b3b3;fill-opacity:1;stroke:#4b4b4b;stroke-width:5;stroke-linecap:round;stroke-linejoin:round;stroke-miterlimit:1;stroke-dasharray:none;stroke-opacity:1"
       d="m 620,582.21917 c 0,17.35752 -9.5939,31.42858 -21.42857,31.42858 -11.83468,0 -21.42858,-14.07106 -21.42857,-31.42858 0,-17.35752 21.42857,-55.42857 21.42857,-55.42857 0,0 21.42857,38.07105 21.42857,55.42857 z"
       id="path6826-7"
       inkscape:connector-curvature="0"
       sodipodi:nodetypes="ssscs" />
    <path
       style="opacity:1;fill:#b3b3b3;fill-opacity:1;stroke:#4b4b4b;stroke-width:5;stroke-linecap:round;stroke-linejoin:round;stroke-miterlimit:1;stroke-dasharray:none;stroke-opacity:1"
       d="m 125.71428,492.93346 c 0,17.35752 -9.5939,31.42858 -21.42857,31.42858 -11.834676,0 -21.428576,-14.07106 -21.428566,-31.42858 0,-17.35752 21.428566,-55.42857 21.428566,-55.42857 0,0 21.42857,38.07105 21.42857,55.42857 z"
       id="path6826-7-1"
       inkscape:connector-curvature="0"
       sodipodi:nodetypes="ssscs" />
  </g>
</svg>
